# xmcd CD Database Entry
#
# Track frame offsets:
# 150
# 20000
# 37552
# 56737
# 71507
# 85562
# 107655
# 125140
# 143955
# 159217
# 173085
# 193837
# 211205
# 230865
# 249932
#
# Disc length: 3628 seconds
#
# Revision: 1
# Processed by: cddbd v1.4b41PL1 Copyright (c) Steve Scherf et al.
# Submitted via: tcd 2.0b
#
DISCID=c80e2a0f
DTITLE=Desconhecido - Desconhecido
DYEAR=1900
DGENRE=
TTITLE0=Trilha 1
TTITLE1=Trilha 2
TTITLE2=Trilha 3
TTITLE3=Trilha 4
TTITLE4=Trilha 5
TTITLE5=Trilha 6
TTITLE6=Trilha 7
TTITLE7=Trilha 8
TTITLE8=Trilha 9
TTITLE9=Trilha 10
TTITLE10=Trilha 11
TTITLE11=Trilha 12
TTITLE12=Trilha 13
TTITLE13=Trilha 14
TTITLE14=Trilha 15
EXTD=
EXTT0=
EXTT1=
EXTT2=
EXTT3=
EXTT4=
EXTT5=
EXTT6=
EXTT7=
EXTT8=
EXTT9=
EXTT10=
EXTT11=
EXTT12=
EXTT13=
EXTT14=
PLAYORDER=
